<svg xmlns="http://www.w3.org/2000/svg" viewBox="0 0 410 404" fill="none">
  <path d="M399.641 59.525 225.328 369.125c-4.56 8.114-16.174 8.114-20.734 0L10.359 59.525c-5.059-9.008 3.069-19.66 13.009-17.03l185.226 48.69a12.11 12.11 0 0 0 6.136 0l185.226-48.69c9.94-2.63 18.068 8.022 13.009 17.03Z" fill="#646CFF"/>
  <path d="M292.965 24.898 186.445 51.804a6.23 6.23 0 0 1-3.05 0L76.875 24.898c-5.198-1.347-9.789 3.774-7.95 8.805l104.64 285.613c1.813 4.94 8.962 4.94 10.775 0l104.64-285.613c1.84-5.03-2.751-10.152-7.95-8.805Z" fill="#A5B4FC"/>
</svg>
